<svg width="44" height="44" viewBox="0 0 44 44" fill="none" xmlns="http://www.w3.org/2000/svg">
<path d="M35.278 17.0304C33.3799 10.7084 26.2621 7.34731 19.4783 9.48132C12.6945 11.6153 8.77529 18.4531 10.6821 24.7573C10.9998 25.8051 11.4739 26.7976 12.0881 27.7004C12.2003 27.8675 12.253 28.0682 12.2375 28.2695C12.1764 28.9453 11.9702 29.5993 11.6332 30.186C11.2962 30.7727 10.8367 31.2779 10.2867 31.6661C9.19709 32.413 9.35526 33.2133 10.6382 33.0621C12.2159 32.9141 13.7146 32.2951 14.944 31.2838C15.0481 31.1608 15.193 31.0803 15.3514 31.0574C15.5099 31.0345 15.6712 31.0707 15.8052 31.1593C18.8544 33.2044 22.5012 33.5423 26.5258 32.2708C33.2745 30.1723 37.2112 23.3346 35.278 17.0304Z" stroke="#6F6E7C" stroke-width="1.8" stroke-miterlimit="10"/>
</svg>
