<svg width="241" height="65" viewBox="0 0 241 65" fill="none" xmlns="http://www.w3.org/2000/svg">
<g filter="url(#filter0_d_1_1021)">
<g filter="url(#filter1_ddd_1_1021)">
<mask id="path-1-inside-1_1_1021" fill="white">
<path d="M30.302 42.408C25.95 42.408 22.822 40.946 20.714 38.804L23.332 35.132C24.93 36.798 27.412 38.192 30.54 38.192C33.192 38.192 34.484 36.968 34.484 35.676C34.484 31.664 21.428 34.418 21.428 25.884C21.428 22.11 24.692 18.982 30.03 18.982C33.634 18.982 36.626 20.07 38.87 22.144L36.184 25.68C34.348 23.98 31.9 23.198 29.588 23.198C27.514 23.198 26.358 24.116 26.358 25.476C26.358 29.08 39.38 26.666 39.38 35.132C39.38 39.28 36.422 42.408 30.302 42.408ZM47.5719 42.408C44.5459 42.408 42.9139 40.844 42.9139 37.92V29.352H40.1939V25.578H42.9139V21.09H47.2659V25.578H50.5979V29.352H47.2659V36.764C47.2659 37.784 47.8099 38.566 48.7619 38.566C49.4079 38.566 50.0199 38.328 50.2579 38.09L51.1759 41.354C50.5299 41.932 49.3739 42.408 47.5719 42.408ZM57.8702 42H53.5522V25.578H57.8702V27.822C59.0262 26.36 61.0662 25.17 63.1062 25.17V29.386C62.8002 29.318 62.3922 29.284 61.9162 29.284C60.4882 29.284 58.5842 30.1 57.8702 31.154V42ZM73.4201 42.408C68.0141 42.408 64.7501 38.464 64.7501 33.772C64.7501 29.114 68.0141 25.17 73.4201 25.17C78.8601 25.17 82.1241 29.114 82.1241 33.772C82.1241 38.464 78.8601 42.408 73.4201 42.408ZM73.4201 38.566C76.1061 38.566 77.6361 36.356 77.6361 33.772C77.6361 31.222 76.1061 29.012 73.4201 29.012C70.7341 29.012 69.2381 31.222 69.2381 33.772C69.2381 36.356 70.7341 38.566 73.4201 38.566ZM89.6455 42H85.3275V19.322H89.6455V42ZM98.2452 42H93.9272V19.322H98.2452V42ZM123.636 42H111.328V19.322H123.262C127.58 19.322 129.79 22.076 129.79 25.102C129.79 27.958 128.022 29.862 125.88 30.304C128.294 30.678 130.232 33.024 130.232 35.88C130.232 39.28 127.954 42 123.636 42ZM122.208 28.4C123.84 28.4 124.86 27.38 124.86 25.952C124.86 24.524 123.84 23.47 122.208 23.47H116.156V28.4H122.208ZM122.378 37.818C124.214 37.818 125.302 36.832 125.302 35.2C125.302 33.772 124.282 32.548 122.378 32.548H116.156V37.818H122.378ZM141.387 42.408C135.981 42.408 132.717 38.464 132.717 33.772C132.717 29.114 135.981 25.17 141.387 25.17C146.827 25.17 150.091 29.114 150.091 33.772C150.091 38.464 146.827 42.408 141.387 42.408ZM141.387 38.566C144.073 38.566 145.603 36.356 145.603 33.772C145.603 31.222 144.073 29.012 141.387 29.012C138.701 29.012 137.205 31.222 137.205 33.772C137.205 36.356 138.701 38.566 141.387 38.566ZM168.696 42H164.378V32.072C164.378 29.794 163.188 29.012 161.352 29.012C159.652 29.012 158.326 29.964 157.612 30.95V42H153.294V25.578H157.612V27.72C158.666 26.462 160.672 25.17 163.358 25.17C166.962 25.17 168.696 27.21 168.696 30.406V42ZM178.288 42H173.936V29.352H171.216V25.578H173.936V24.694C173.936 21.124 176.248 18.982 179.478 18.982C180.702 18.982 181.824 19.254 182.606 19.662L181.722 22.79C181.382 22.552 180.906 22.382 180.328 22.382C179.104 22.382 178.288 23.198 178.288 24.694V25.578H181.62V29.352H178.288V42ZM186.244 23.81C184.85 23.81 183.66 22.654 183.66 21.226C183.66 19.798 184.85 18.676 186.244 18.676C187.672 18.676 188.828 19.798 188.828 21.226C188.828 22.654 187.672 23.81 186.244 23.81ZM188.42 42H184.102V25.578H188.42V42ZM197.024 42H192.706V25.578H197.024V27.822C198.18 26.36 200.22 25.17 202.26 25.17V29.386C201.954 29.318 201.546 29.284 201.07 29.284C199.642 29.284 197.738 30.1 197.024 31.154V42ZM212.676 42.408C207.678 42.408 203.904 39.042 203.904 33.772C203.904 29.012 207.406 25.17 212.404 25.17C217.3 25.17 220.632 28.842 220.632 34.214V35.166H208.426C208.698 37.24 210.364 38.974 213.152 38.974C214.546 38.974 216.484 38.362 217.538 37.342L219.442 40.13C217.81 41.626 215.226 42.408 212.676 42.408ZM216.45 32.242C216.348 30.678 215.26 28.604 212.404 28.604C209.718 28.604 208.562 30.61 208.358 32.242H216.45Z"/>
</mask>
<path d="M30.302 42.408C25.95 42.408 22.822 40.946 20.714 38.804L23.332 35.132C24.93 36.798 27.412 38.192 30.54 38.192C33.192 38.192 34.484 36.968 34.484 35.676C34.484 31.664 21.428 34.418 21.428 25.884C21.428 22.11 24.692 18.982 30.03 18.982C33.634 18.982 36.626 20.07 38.87 22.144L36.184 25.68C34.348 23.98 31.9 23.198 29.588 23.198C27.514 23.198 26.358 24.116 26.358 25.476C26.358 29.08 39.38 26.666 39.38 35.132C39.38 39.28 36.422 42.408 30.302 42.408ZM47.5719 42.408C44.5459 42.408 42.9139 40.844 42.9139 37.92V29.352H40.1939V25.578H42.9139V21.09H47.2659V25.578H50.5979V29.352H47.2659V36.764C47.2659 37.784 47.8099 38.566 48.7619 38.566C49.4079 38.566 50.0199 38.328 50.2579 38.09L51.1759 41.354C50.5299 41.932 49.3739 42.408 47.5719 42.408ZM57.8702 42H53.5522V25.578H57.8702V27.822C59.0262 26.36 61.0662 25.17 63.1062 25.17V29.386C62.8002 29.318 62.3922 29.284 61.9162 29.284C60.4882 29.284 58.5842 30.1 57.8702 31.154V42ZM73.4201 42.408C68.0141 42.408 64.7501 38.464 64.7501 33.772C64.7501 29.114 68.0141 25.17 73.4201 25.17C78.8601 25.17 82.1241 29.114 82.1241 33.772C82.1241 38.464 78.8601 42.408 73.4201 42.408ZM73.4201 38.566C76.1061 38.566 77.6361 36.356 77.6361 33.772C77.6361 31.222 76.1061 29.012 73.4201 29.012C70.7341 29.012 69.2381 31.222 69.2381 33.772C69.2381 36.356 70.7341 38.566 73.4201 38.566ZM89.6455 42H85.3275V19.322H89.6455V42ZM98.2452 42H93.9272V19.322H98.2452V42ZM123.636 42H111.328V19.322H123.262C127.58 19.322 129.79 22.076 129.79 25.102C129.79 27.958 128.022 29.862 125.88 30.304C128.294 30.678 130.232 33.024 130.232 35.88C130.232 39.28 127.954 42 123.636 42ZM122.208 28.4C123.84 28.4 124.86 27.38 124.86 25.952C124.86 24.524 123.84 23.47 122.208 23.47H116.156V28.4H122.208ZM122.378 37.818C124.214 37.818 125.302 36.832 125.302 35.2C125.302 33.772 124.282 32.548 122.378 32.548H116.156V37.818H122.378ZM141.387 42.408C135.981 42.408 132.717 38.464 132.717 33.772C132.717 29.114 135.981 25.17 141.387 25.17C146.827 25.17 150.091 29.114 150.091 33.772C150.091 38.464 146.827 42.408 141.387 42.408ZM141.387 38.566C144.073 38.566 145.603 36.356 145.603 33.772C145.603 31.222 144.073 29.012 141.387 29.012C138.701 29.012 137.205 31.222 137.205 33.772C137.205 36.356 138.701 38.566 141.387 38.566ZM168.696 42H164.378V32.072C164.378 29.794 163.188 29.012 161.352 29.012C159.652 29.012 158.326 29.964 157.612 30.95V42H153.294V25.578H157.612V27.72C158.666 26.462 160.672 25.17 163.358 25.17C166.962 25.17 168.696 27.21 168.696 30.406V42ZM178.288 42H173.936V29.352H171.216V25.578H173.936V24.694C173.936 21.124 176.248 18.982 179.478 18.982C180.702 18.982 181.824 19.254 182.606 19.662L181.722 22.79C181.382 22.552 180.906 22.382 180.328 22.382C179.104 22.382 178.288 23.198 178.288 24.694V25.578H181.62V29.352H178.288V42ZM186.244 23.81C184.85 23.81 183.66 22.654 183.66 21.226C183.66 19.798 184.85 18.676 186.244 18.676C187.672 18.676 188.828 19.798 188.828 21.226C188.828 22.654 187.672 23.81 186.244 23.81ZM188.42 42H184.102V25.578H188.42V42ZM197.024 42H192.706V25.578H197.024V27.822C198.18 26.36 200.22 25.17 202.26 25.17V29.386C201.954 29.318 201.546 29.284 201.07 29.284C199.642 29.284 197.738 30.1 197.024 31.154V42ZM212.676 42.408C207.678 42.408 203.904 39.042 203.904 33.772C203.904 29.012 207.406 25.17 212.404 25.17C217.3 25.17 220.632 28.842 220.632 34.214V35.166H208.426C208.698 37.24 210.364 38.974 213.152 38.974C214.546 38.974 216.484 38.362 217.538 37.342L219.442 40.13C217.81 41.626 215.226 42.408 212.676 42.408ZM216.45 32.242C216.348 30.678 215.26 28.604 212.404 28.604C209.718 28.604 208.562 30.61 208.358 32.242H216.45Z" fill="#CCC8FF"/>
<path d="M20.714 38.804L20.4571 38.6208L20.3033 38.8365L20.4891 39.0253L20.714 38.804ZM23.332 35.132L23.5597 34.9136L23.2961 34.6388L23.0751 34.9488L23.332 35.132ZM38.87 22.144L39.1213 22.3349L39.2946 22.1067L39.0842 21.9123L38.87 22.144ZM36.184 25.68L35.9696 25.9115L36.2249 26.1479L36.4353 25.8709L36.184 25.68ZM30.302 42.0925C26.0264 42.0925 22.9821 40.6588 20.9389 38.5827L20.4891 39.0253C22.6619 41.2332 25.8736 42.7235 30.302 42.7235V42.0925ZM20.9709 38.9872L23.5889 35.3152L23.0751 34.9488L20.4571 38.6208L20.9709 38.9872ZM23.1043 35.3504C24.7527 37.069 27.3138 38.5075 30.54 38.5075V37.8765C27.5102 37.8765 25.1073 36.527 23.5597 34.9136L23.1043 35.3504ZM30.54 38.5075C31.9112 38.5075 32.9673 38.1914 33.6899 37.6753C34.4169 37.156 34.7995 36.436 34.7995 35.676H34.1685C34.1685 36.208 33.9051 36.746 33.3231 37.1617C32.7367 37.5806 31.8208 37.8765 30.54 37.8765V38.5075ZM34.7995 35.676C34.7995 35.0743 34.5492 34.5971 34.1355 34.2202C33.7329 33.8533 33.1769 33.5814 32.5506 33.3565C31.921 33.1306 31.1924 32.9427 30.427 32.7581C29.6562 32.5722 28.8487 32.3896 28.0381 32.1711C26.4141 31.7334 24.8375 31.1659 23.6682 30.2062C22.5162 29.2607 21.7435 27.9217 21.7435 25.884H21.1125C21.1125 28.1133 21.9718 29.6303 23.2678 30.694C24.5465 31.7435 26.2339 32.3384 27.8739 32.7804C28.6953 33.0018 29.5198 33.1884 30.279 33.3716C31.0436 33.556 31.743 33.7372 32.3374 33.9505C32.9351 34.1651 33.3991 34.4029 33.7105 34.6866C34.0108 34.9603 34.1685 35.2747 34.1685 35.676H34.7995ZM21.7435 25.884C21.7435 22.3319 24.8145 19.2975 30.03 19.2975V18.6665C24.5695 18.6665 21.1125 21.8881 21.1125 25.884H21.7435ZM30.03 19.2975C33.5678 19.2975 36.4791 20.3639 38.6558 22.3757L39.0842 21.9123C36.7729 19.7761 33.7002 18.6665 30.03 18.6665V19.2975ZM38.6187 21.9531L35.9327 25.4891L36.4353 25.8709L39.1213 22.3349L38.6187 21.9531ZM36.3984 25.4485C34.4954 23.6864 31.9668 22.8825 29.588 22.8825V23.5135C31.8332 23.5135 34.2006 24.2736 35.9696 25.9115L36.3984 25.4485ZM29.588 22.8825C28.5094 22.8825 27.629 23.1205 27.0094 23.572C26.3794 24.0311 26.0425 24.6955 26.0425 25.476H26.6735C26.6735 24.8965 26.9146 24.4219 27.3811 24.082C27.858 23.7345 28.5926 23.5135 29.588 23.5135V22.8825ZM26.0425 25.476C26.0425 26.0394 26.3037 26.4791 26.7161 26.8212C27.1171 27.154 27.6698 27.4033 28.2916 27.6136C28.9173 27.8251 29.6424 28.0064 30.4045 28.1896C31.1711 28.3738 31.9775 28.5604 32.7845 28.7848C34.4025 29.2347 35.9758 29.8249 37.1429 30.8006C38.2939 31.7627 39.0645 33.1114 39.0645 35.132H39.6955C39.6955 32.9196 38.8383 31.3953 37.5477 30.3164C36.2732 29.2509 34.591 28.6321 32.9535 28.1767C32.1327 27.9485 31.3114 27.7584 30.552 27.576C29.7881 27.3924 29.0889 27.217 28.4938 27.0157C27.8948 26.8132 27.4301 26.5937 27.119 26.3356C26.8192 26.0868 26.6735 25.8136 26.6735 25.476H26.0425ZM39.0645 35.132C39.0645 37.1271 38.3557 38.8541 36.9297 40.0868C35.4988 41.3237 33.311 42.0925 30.302 42.0925V42.7235C33.413 42.7235 35.7642 41.9284 37.3424 40.5642C38.9253 39.1959 39.6955 37.2849 39.6955 35.132H39.0645ZM42.9139 29.352H43.2294V29.0365H42.9139V29.352ZM40.1939 29.352H39.8783V29.6675H40.1939V29.352ZM40.1939 25.578V25.2625H39.8783V25.578H40.1939ZM42.9139 25.578V25.8935H43.2294V25.578H42.9139ZM42.9139 21.09V20.7745H42.5983V21.09H42.9139ZM47.2659 21.09H47.5814V20.7745H47.2659V21.09ZM47.2659 25.578H46.9503V25.8935H47.2659V25.578ZM50.5979 25.578H50.9134V25.2625H50.5979V25.578ZM50.5979 29.352V29.6675H50.9134V29.352H50.5979ZM47.2659 29.352V29.0365H46.9503V29.352H47.2659ZM50.2579 38.09L50.5616 38.0046L50.4158 37.4859L50.0348 37.8669L50.2579 38.09ZM51.1759 41.354L51.3863 41.5892L51.5329 41.458L51.4796 41.2686L51.1759 41.354ZM47.5719 42.0925C46.1101 42.0925 45.0356 41.715 44.3269 41.0331C43.6202 40.3531 43.2294 39.3243 43.2294 37.92H42.5983C42.5983 39.4397 43.0236 40.6549 43.8893 41.4879C44.7531 42.319 46.0076 42.7235 47.5719 42.7235V42.0925ZM43.2294 37.92V29.352H42.5983V37.92H43.2294ZM42.9139 29.0365H40.1939V29.6675H42.9139V29.0365ZM40.5094 29.352V25.578H39.8783V29.352H40.5094ZM40.1939 25.8935H42.9139V25.2625H40.1939V25.8935ZM43.2294 25.578V21.09H42.5983V25.578H43.2294ZM42.9139 21.4055H47.2659V20.7745H42.9139V21.4055ZM46.9503 21.09V25.578H47.5814V21.09H46.9503ZM47.2659 25.8935H50.5979V25.2625H47.2659V25.8935ZM50.2823 25.578V29.352H50.9134V25.578H50.2823ZM50.5979 29.0365H47.2659V29.6675H50.5979V29.0365ZM46.9503 29.352V36.764H47.5814V29.352H46.9503ZM46.9503 36.764C46.9503 37.3266 47.1001 37.8514 47.4092 38.243C47.7245 38.6424 48.19 38.8815 48.7619 38.8815V38.2505C48.3817 38.2505 48.0993 38.0986 47.9045 37.852C47.7037 37.5976 47.5814 37.2214 47.5814 36.764H46.9503ZM48.7619 38.8815C49.122 38.8815 49.4706 38.8155 49.7641 38.7161C50.0503 38.6192 50.3138 38.4803 50.481 38.3131L50.0348 37.8669C49.9639 37.9377 49.8024 38.0368 49.5616 38.1184C49.3281 38.1975 49.0478 38.2505 48.7619 38.2505V38.8815ZM49.9541 38.1754L50.8721 41.4394L51.4796 41.2686L50.5616 38.0046L49.9541 38.1754ZM50.9655 41.1188C50.3942 41.63 49.3222 42.0925 47.5719 42.0925V42.7235C49.4255 42.7235 50.6656 42.234 51.3863 41.5892L50.9655 41.1188ZM57.8702 42V42.3155H58.1857V42H57.8702ZM53.5522 42H53.2366V42.3155H53.5522V42ZM53.5522 25.578V25.2625H53.2366V25.578H53.5522ZM57.8702 25.578H58.1857V25.2625H57.8702V25.578ZM57.8702 27.822H57.5546V28.7298L58.1177 28.0177L57.8702 27.822ZM63.1062 25.17H63.4217V24.8545H63.1062V25.17ZM63.1062 29.386L63.0377 29.694L63.4217 29.7794V29.386H63.1062ZM57.8702 31.154L57.6089 30.977L57.5546 31.0572V31.154H57.8702ZM57.8702 41.6845H53.5522V42.3155H57.8702V41.6845ZM53.8677 42V25.578H53.2366V42H53.8677ZM53.5522 25.8935H57.8702V25.2625H53.5522V25.8935ZM57.5546 25.578V27.822H58.1857V25.578H57.5546ZM58.1177 28.0177C59.2243 26.6181 61.1784 25.4855 63.1062 25.4855V24.8545C60.9539 24.8545 58.828 26.1019 57.6226 27.6263L58.1177 28.0177ZM62.7906 25.17V29.386H63.4217V25.17H62.7906ZM63.1746 29.078C62.8372 29.003 62.4037 28.9685 61.9162 28.9685V29.5995C62.3806 29.5995 62.7632 29.633 63.0377 29.694L63.1746 29.078ZM61.9162 28.9685C61.1485 28.9685 60.2712 29.186 59.4956 29.5362C58.7245 29.8843 58.0116 30.3827 57.6089 30.977L58.1314 31.331C58.4428 30.8713 59.0388 30.4347 59.7552 30.1113C60.4671 29.79 61.2558 29.5995 61.9162 29.5995V28.9685ZM57.5546 31.154V42H58.1857V31.154H57.5546ZM73.4201 42.0925C70.7981 42.0925 68.7152 41.1381 67.2868 39.6323C65.8558 38.1239 65.0657 36.0451 65.0657 33.772H64.4346C64.4346 36.1909 65.2764 38.4301 66.8289 40.0667C68.384 41.7059 70.6361 42.7235 73.4201 42.7235V42.0925ZM65.0657 33.772C65.0657 29.2732 68.2031 25.4855 73.4201 25.4855V24.8545C67.8252 24.8545 64.4346 28.9548 64.4346 33.772H65.0657ZM73.4201 25.4855C76.0597 25.4855 78.1513 26.4403 79.5838 27.942C81.0188 29.4463 81.8086 31.5165 81.8086 33.772H82.4397C82.4397 31.3695 81.5974 29.1387 80.0404 27.5065C78.4809 25.8716 76.2205 24.8545 73.4201 24.8545V25.4855ZM81.8086 33.772C81.8086 36.045 81.0184 38.1237 79.5835 39.632C78.1511 41.1377 76.0597 42.0925 73.4201 42.0925V42.7235C76.2205 42.7235 78.4811 41.7063 80.0407 40.067C81.5978 38.4303 82.4397 36.191 82.4397 33.772H81.8086ZM73.4201 38.8815C74.8583 38.8815 76.0016 38.2861 76.7793 37.3381C77.5518 36.3965 77.9516 35.1233 77.9516 33.772H77.3206C77.3206 35.0047 76.9554 36.1285 76.2914 36.9379C75.6326 37.7409 74.6679 38.2505 73.4201 38.2505V38.8815ZM77.9516 33.772C77.9516 32.4368 77.5513 31.1721 76.7788 30.235C76.0012 29.2918 74.8582 28.6965 73.4201 28.6965V29.3275C74.668 29.3275 75.633 29.8372 76.2919 30.6365C76.9559 31.4419 77.3206 32.5572 77.3206 33.772H77.9516ZM73.4201 28.6965C71.9816 28.6965 70.8465 29.2922 70.0772 30.2365C69.3134 31.174 68.9226 32.4385 68.9226 33.772H69.5536C69.5536 32.5555 69.9108 31.44 70.5665 30.635C71.2167 29.8368 72.1726 29.3275 73.4201 29.3275V28.6965ZM68.9226 33.772C68.9226 35.1217 69.313 36.3946 70.0767 37.3367C70.8461 38.2857 71.9815 38.8815 73.4201 38.8815V38.2505C72.1727 38.2505 71.2171 37.7413 70.567 36.9393C69.9112 36.1304 69.5536 35.0063 69.5536 33.772H68.9226ZM89.6455 42V42.3155H89.9611V42H89.6455ZM85.3275 42H85.012V42.3155H85.3275V42ZM85.3275 19.322V19.0065H85.012V19.322H85.3275ZM89.6455 19.322H89.9611V19.0065H89.6455V19.322ZM89.6455 41.6845H85.3275V42.3155H89.6455V41.6845ZM85.6431 42V19.322H85.012V42H85.6431ZM85.3275 19.6375H89.6455V19.0065H85.3275V19.6375ZM89.33 19.322V42H89.9611V19.322H89.33ZM98.2452 42V42.3155H98.5607V42H98.2452ZM93.9272 42H93.6116V42.3155H93.9272V42ZM93.9272 19.322V19.0065H93.6116V19.322H93.9272ZM98.2452 19.322H98.5607V19.0065H98.2452V19.322ZM98.2452 41.6845H93.9272V42.3155H98.2452V41.6845ZM94.2427 42V19.322H93.6116V42H94.2427ZM93.9272 19.6375H98.2452V19.0065H93.9272V19.6375ZM97.9296 19.322V42H98.5607V19.322H97.9296ZM111.328 42H111.012V42.3155H111.328V42ZM111.328 19.322V19.0065H111.012V19.322H111.328ZM125.88 30.304L125.816 29.995L125.832 30.6158L125.88 30.304ZM116.156 23.47V23.1545H115.84V23.47H116.156ZM116.156 28.4H115.84V28.7155H116.156V28.4ZM116.156 32.548V32.2325H115.84V32.548H116.156ZM116.156 37.818H115.84V38.1335H116.156V37.818ZM123.636 41.6845H111.328V42.3155H123.636V41.6845ZM111.644 42V19.322H111.012V42H111.644ZM111.328 19.6375H123.262V19.0065H111.328V19.6375ZM123.262 19.6375C125.352 19.6375 126.9 20.3024 127.925 21.303C128.951 22.3052 129.474 23.6662 129.474 25.102H130.106C130.106 23.5118 129.524 21.9828 128.366 20.8515C127.206 19.7186 125.49 19.0065 123.262 19.0065V19.6375ZM129.474 25.102C129.474 27.8135 127.807 29.5843 125.816 29.995L125.944 30.613C128.237 30.1397 130.106 28.1025 130.106 25.102H129.474ZM125.832 30.6158C128.072 30.9629 129.916 33.1584 129.916 35.88H130.548C130.548 32.8896 128.516 30.3931 125.928 29.9922L125.832 30.6158ZM129.916 35.88C129.916 37.5091 129.372 38.9542 128.331 39.9915C127.291 41.0275 125.727 41.6845 123.636 41.6845V42.3155C125.863 42.3155 127.597 41.6125 128.776 40.4385C129.953 39.2658 130.548 37.6509 130.548 35.88H129.916ZM122.208 28.7155C123.09 28.7155 123.835 28.4388 124.363 27.9409C124.891 27.4419 125.176 26.7439 125.176 25.952H124.544C124.544 26.5881 124.319 27.1141 123.929 27.4821C123.539 27.8512 122.958 28.0845 122.208 28.0845V28.7155ZM125.176 25.952C125.176 25.1606 124.891 24.4553 124.365 23.9482C123.839 23.4415 123.093 23.1545 122.208 23.1545V23.7855C122.955 23.7855 123.535 24.0255 123.927 24.4028C124.319 24.7797 124.544 25.3154 124.544 25.952H125.176ZM122.208 23.1545H116.156V23.7855H122.208V23.1545ZM115.84 23.47V28.4H116.472V23.47H115.84ZM116.156 28.7155H122.208V28.0845H116.156V28.7155ZM122.378 38.1335C123.35 38.1335 124.164 37.8722 124.739 37.3557C125.319 36.8354 125.618 36.0894 125.618 35.2H124.986C124.986 35.9426 124.741 36.5056 124.318 36.8863C123.89 37.2708 123.242 37.5025 122.378 37.5025V38.1335ZM125.618 35.2C125.618 34.4102 125.335 33.6632 124.775 33.1134C124.214 32.5624 123.4 32.2325 122.378 32.2325V32.8635C123.26 32.8635 123.907 33.1456 124.333 33.5636C124.759 33.9828 124.986 34.5618 124.986 35.2H125.618ZM122.378 32.2325H116.156V32.8635H122.378V32.2325ZM115.84 32.548V37.818H116.472V32.548H115.84ZM116.156 38.1335H122.378V37.5025H116.156V38.1335ZM141.387 42.0925C138.765 42.0925 136.682 41.1381 135.254 39.6323C133.823 38.1239 133.032 36.0451 133.032 33.772H132.401C132.401 36.1909 133.243 38.4301 134.796 40.0667C136.351 41.7059 138.603 42.7235 141.387 42.7235V42.0925ZM133.032 33.772C133.032 29.2732 136.17 25.4855 141.387 25.4855V24.8545C135.792 24.8545 132.401 28.9548 132.401 33.772H133.032ZM141.387 25.4855C144.027 25.4855 146.118 26.4403 147.551 27.942C148.986 29.4463 149.775 31.5165 149.775 33.772H150.406C150.406 31.3695 149.564 29.1387 148.007 27.5065C146.448 25.8716 144.187 24.8545 141.387 24.8545V25.4855ZM149.775 33.772C149.775 36.045 148.985 38.1237 147.55 39.632C146.118 41.1377 144.026 42.0925 141.387 42.0925V42.7235C144.187 42.7235 146.448 41.7063 148.008 40.067C149.565 38.4303 150.406 36.191 150.406 33.772H149.775ZM141.387 38.8815C142.825 38.8815 143.968 38.2861 144.746 37.3381C145.519 36.3965 145.918 35.1233 145.918 33.772H145.287C145.287 35.0047 144.922 36.1285 144.258 36.9379C143.599 37.7409 142.635 38.2505 141.387 38.2505V38.8815ZM145.918 33.772C145.918 32.4368 145.518 31.1721 144.746 30.235C143.968 29.2918 142.825 28.6965 141.387 28.6965V29.3275C142.635 29.3275 143.6 29.8372 144.259 30.6365C144.923 31.4419 145.287 32.5572 145.287 33.772H145.918ZM141.387 28.6965C139.948 28.6965 138.813 29.2922 138.044 30.2365C137.28 31.174 136.889 32.4385 136.889 33.772H137.52C137.52 32.5555 137.878 31.44 138.533 30.635C139.184 29.8368 140.139 29.3275 141.387 29.3275V28.6965ZM136.889 33.772C136.889 35.1217 137.28 36.3946 138.044 37.3367C138.813 38.2857 139.948 38.8815 141.387 38.8815V38.2505C140.14 38.2505 139.184 37.7413 138.534 36.9393C137.878 36.1304 137.52 35.0063 137.52 33.772H136.889ZM168.696 42V42.3155H169.012V42H168.696ZM164.378 42H164.063V42.3155H164.378V42ZM157.612 30.95L157.357 30.7649L157.297 30.8477V30.95H157.612ZM157.612 42V42.3155H157.928V42H157.612ZM153.294 42H152.979V42.3155H153.294V42ZM153.294 25.578V25.2625H152.979V25.578H153.294ZM157.612 25.578H157.928V25.2625H157.612V25.578ZM157.612 27.72H157.297V28.5879L157.854 27.9226L157.612 27.72ZM168.696 41.6845H164.378V42.3155H168.696V41.6845ZM164.694 42V32.072H164.063V42H164.694ZM164.694 32.072C164.694 30.8809 164.382 30.0155 163.766 29.4545C163.157 28.8988 162.308 28.6965 161.352 28.6965V29.3275C162.233 29.3275 162.897 29.5162 163.341 29.921C163.78 30.3205 164.063 30.9851 164.063 32.072H164.694ZM161.352 28.6965C159.53 28.6965 158.117 29.7155 157.357 30.7649L157.868 31.1351C158.536 30.2125 159.774 29.3275 161.352 29.3275V28.6965ZM157.297 30.95V42H157.928V30.95H157.297ZM157.612 41.6845H153.294V42.3155H157.612V41.6845ZM153.61 42V25.578H152.979V42H153.61ZM153.294 25.8935H157.612V25.2625H153.294V25.8935ZM157.297 25.578V27.72H157.928V25.578H157.297ZM157.854 27.9226C158.855 26.7277 160.776 25.4855 163.358 25.4855V24.8545C160.568 24.8545 158.477 26.1963 157.37 27.5174L157.854 27.9226ZM163.358 25.4855C165.101 25.4855 166.344 25.9776 167.153 26.8094C167.963 27.643 168.381 28.8628 168.381 30.406H169.012C169.012 28.7532 168.563 27.355 167.605 26.3696C166.646 25.3824 165.219 24.8545 163.358 24.8545V25.4855ZM168.381 30.406V42H169.012V30.406H168.381ZM178.288 42V42.3155H178.603V42H178.288ZM173.936 42H173.62V42.3155H173.936V42ZM173.936 29.352H174.251V29.0365H173.936V29.352ZM171.216 29.352H170.9V29.6675H171.216V29.352ZM171.216 25.578V25.2625H170.9V25.578H171.216ZM173.936 25.578V25.8935H174.251V25.578H173.936ZM182.606 19.662L182.909 19.7478L182.979 19.5009L182.752 19.3822L182.606 19.662ZM181.722 22.79L181.541 23.0485L181.905 23.3032L182.025 22.8758L181.722 22.79ZM178.288 25.578H177.972V25.8935H178.288V25.578ZM181.62 25.578H181.935V25.2625H181.62V25.578ZM181.62 29.352V29.6675H181.935V29.352H181.62ZM178.288 29.352V29.0365H177.972V29.352H178.288ZM188.42 42V42.3155H188.735V42H188.42ZM184.102 42H183.786V42.3155H184.102V42ZM184.102 25.578V25.2625H183.786V25.578H184.102ZM188.42 25.578H188.735V25.2625H188.42V25.578ZM178.288 41.6845H173.936V42.3155H178.288V41.6845ZM174.251 42V29.352H173.62V42H174.251ZM173.936 29.0365H171.216V29.6675H173.936V29.0365ZM171.531 29.352V25.578H170.9V29.352H171.531ZM171.216 25.8935H173.936V25.2625H171.216V25.8935ZM174.251 25.578V24.694H173.62V25.578H174.251ZM174.251 24.694C174.251 22.9788 174.805 21.6358 175.719 20.7224C176.633 19.8083 177.934 19.2975 179.478 19.2975V18.6665C177.792 18.6665 176.322 19.2267 175.272 20.2761C174.222 21.3262 173.62 22.8392 173.62 24.694H174.251ZM179.478 19.2975C180.66 19.2975 181.73 19.5611 182.46 19.9418L182.752 19.3822C181.917 18.9469 180.744 18.6665 179.478 18.6665V19.2975ZM182.302 19.5762L181.418 22.7042L182.025 22.8758L182.909 19.7478L182.302 19.5762ZM181.903 22.5315C181.508 22.255 180.968 22.0665 180.328 22.0665V22.6975C180.844 22.6975 181.256 22.849 181.541 23.0485L181.903 22.5315ZM180.328 22.0665C179.643 22.0665 179.043 22.2968 178.616 22.7642C178.192 23.2285 177.972 23.8904 177.972 24.694H178.603C178.603 24.0016 178.792 23.5075 179.082 23.1898C179.369 22.8752 179.789 22.6975 180.328 22.6975V22.0665ZM177.972 24.694V25.578H178.603V24.694H177.972ZM178.288 25.8935H181.62V25.2625H178.288V25.8935ZM181.304 25.578V29.352H181.935V25.578H181.304ZM181.62 29.0365H178.288V29.6675H181.62V29.0365ZM177.972 29.352V42H178.603V29.352H177.972ZM186.244 23.4945C185.021 23.4945 183.975 22.477 183.975 21.226H183.344C183.344 22.831 184.678 24.1255 186.244 24.1255V23.4945ZM183.975 21.226C183.975 19.9804 185.016 18.9915 186.244 18.9915V18.3605C184.684 18.3605 183.344 19.6156 183.344 21.226H183.975ZM186.244 18.9915C187.503 18.9915 188.512 19.9777 188.512 21.226H189.143C189.143 19.6183 187.841 18.3605 186.244 18.3605V18.9915ZM188.512 21.226C188.512 22.4797 187.498 23.4945 186.244 23.4945V24.1255C187.846 24.1255 189.143 22.8283 189.143 21.226H188.512ZM188.42 41.6845H184.102V42.3155H188.42V41.6845ZM184.417 42V25.578H183.786V42H184.417ZM184.102 25.8935H188.42V25.2625H184.102V25.8935ZM188.104 25.578V42H188.735V25.578H188.104ZM197.024 42V42.3155H197.34V42H197.024ZM192.706 42H192.391V42.3155H192.706V42ZM192.706 25.578V25.2625H192.391V25.578H192.706ZM197.024 25.578H197.34V25.2625H197.024V25.578ZM197.024 27.822H196.709V28.7298L197.272 28.0177L197.024 27.822ZM202.26 25.17H202.576V24.8545H202.26V25.17ZM202.26 29.386L202.192 29.694L202.576 29.7794V29.386H202.26ZM197.024 31.154L196.763 30.977L196.709 31.0572V31.154H197.024ZM197.024 41.6845H192.706V42.3155H197.024V41.6845ZM193.022 42V25.578H192.391V42H193.022ZM192.706 25.8935H197.024V25.2625H192.706V25.8935ZM196.709 25.578V27.822H197.34V25.578H196.709ZM197.272 28.0177C198.379 26.6181 200.333 25.4855 202.26 25.4855V24.8545C200.108 24.8545 197.982 26.1019 196.777 27.6263L197.272 28.0177ZM201.945 25.17V29.386H202.576V25.17H201.945ZM202.329 29.078C201.991 29.003 201.558 28.9685 201.07 28.9685V29.5995C201.535 29.5995 201.917 29.633 202.192 29.694L202.329 29.078ZM201.07 28.9685C200.303 28.9685 199.425 29.186 198.65 29.5362C197.879 29.8843 197.166 30.3827 196.763 30.977L197.286 31.331C197.597 30.8713 198.193 30.4347 198.91 30.1113C199.621 29.79 200.41 29.5995 201.07 29.5995V28.9685ZM196.709 31.154V42H197.34V31.154H196.709ZM220.632 35.166V35.4815H220.948V35.166H220.632ZM208.426 35.166V34.8505H208.067L208.114 35.207L208.426 35.166ZM217.538 37.342L217.799 37.164L217.588 36.855L217.319 37.1153L217.538 37.342ZM219.442 40.13L219.656 40.3626L219.857 40.1778L219.703 39.952L219.442 40.13ZM216.45 32.242V32.5575H216.787L216.765 32.2215L216.45 32.242ZM208.358 32.242L208.045 32.2029L208.001 32.5575H208.358V32.242ZM212.676 42.0925C210.249 42.0925 208.137 41.2758 206.634 39.8382C205.133 38.4024 204.22 36.3282 204.22 33.772H203.589C203.589 36.4858 204.562 38.7296 206.198 40.2943C207.832 41.8572 210.106 42.7235 212.676 42.7235V42.0925ZM204.22 33.772C204.22 29.1754 207.591 25.4855 212.404 25.4855V24.8545C207.221 24.8545 203.589 28.8486 203.589 33.772H204.22ZM212.404 25.4855C214.769 25.4855 216.739 26.3701 218.121 27.8898C219.505 29.4119 220.317 31.5929 220.317 34.214H220.948C220.948 31.4631 220.094 29.1221 218.588 27.4652C217.079 25.8059 214.936 24.8545 212.404 24.8545V25.4855ZM220.317 34.214V35.166H220.948V34.214H220.317ZM220.632 34.8505H208.426V35.4815H220.632V34.8505ZM208.114 35.207C208.407 37.4414 210.209 39.2895 213.152 39.2895V38.6585C210.52 38.6585 208.99 37.0386 208.739 35.125L208.114 35.207ZM213.152 39.2895C213.891 39.2895 214.76 39.1284 215.578 38.8379C216.396 38.5479 217.188 38.1201 217.758 37.5687L217.319 37.1153C216.835 37.5839 216.131 37.9721 215.367 38.2431C214.605 38.5136 213.808 38.6585 213.152 38.6585V39.2895ZM217.278 37.52L219.182 40.308L219.703 39.952L217.799 37.164L217.278 37.52ZM219.229 39.8974C217.672 41.3246 215.174 42.0925 212.676 42.0925V42.7235C215.279 42.7235 217.949 41.9274 219.656 40.3626L219.229 39.8974ZM216.765 32.2215C216.711 31.3818 216.392 30.4012 215.695 29.6256C214.99 28.8414 213.917 28.2885 212.404 28.2885V28.9195C213.748 28.9195 214.647 29.4036 215.225 30.0474C215.812 30.6998 216.088 31.5382 216.136 32.2625L216.765 32.2215ZM212.404 28.2885C210.974 28.2885 209.929 28.8263 209.219 29.5971C208.515 30.3601 208.154 31.3351 208.045 32.2029L208.672 32.2811C208.767 31.5169 209.085 30.6729 209.683 30.0248C210.273 29.3847 211.149 28.9195 212.404 28.9195V28.2885ZM208.358 32.5575H216.45V31.9265H208.358V32.5575Z" fill="#B3ADF6" mask="url(#path-1-inside-1_1_1021)"/>
</g>
</g>
<defs>
<filter id="filter0_d_1_1021" x="0.713997" y="0.675995" width="239.918" height="63.732" filterUnits="userSpaceOnUse" color-interpolation-filters="sRGB">
<feFlood flood-opacity="0" result="BackgroundImageFix"/>
<feColorMatrix in="SourceAlpha" type="matrix" values="0 0 0 0 0 0 0 0 0 0 0 0 0 0 0 0 0 0 127 0" result="hardAlpha"/>
<feOffset dy="2"/>
<feGaussianBlur stdDeviation="10"/>
<feComposite in2="hardAlpha" operator="out"/>
<feColorMatrix type="matrix" values="0 0 0 0 0 0 0 0 0 0 0 0 0 0 0 0 0 0 0.2 0"/>
<feBlend mode="normal" in2="BackgroundImageFix" result="effect1_dropShadow_1_1021"/>
<feBlend mode="normal" in="SourceGraphic" in2="effect1_dropShadow_1_1021" result="shape"/>
</filter>
<filter id="filter1_ddd_1_1021" x="12.814" y="10.776" width="215.718" height="39.532" filterUnits="userSpaceOnUse" color-interpolation-filters="sRGB">
<feFlood flood-opacity="0" result="BackgroundImageFix"/>
<feColorMatrix in="SourceAlpha" type="matrix" values="0 0 0 0 0 0 0 0 0 0 0 0 0 0 0 0 0 0 127 0" result="hardAlpha"/>
<feOffset/>
<feGaussianBlur stdDeviation="3.95"/>
<feComposite in2="hardAlpha" operator="out"/>
<feColorMatrix type="matrix" values="0 0 0 0 0 0 0 0 0 0 0 0 0 0 0 0 0 0 0.2 0"/>
<feBlend mode="normal" in2="BackgroundImageFix" result="effect1_dropShadow_1_1021"/>
<feColorMatrix in="SourceAlpha" type="matrix" values="0 0 0 0 0 0 0 0 0 0 0 0 0 0 0 0 0 0 127 0" result="hardAlpha"/>
<feOffset/>
<feGaussianBlur stdDeviation="1"/>
<feComposite in2="hardAlpha" operator="out"/>
<feColorMatrix type="matrix" values="0 0 0 0 0.745443 0 0 0 0 0.745443 0 0 0 0 0.745443 0 0 0 1 0"/>
<feBlend mode="normal" in2="effect1_dropShadow_1_1021" result="effect2_dropShadow_1_1021"/>
<feColorMatrix in="SourceAlpha" type="matrix" values="0 0 0 0 0 0 0 0 0 0 0 0 0 0 0 0 0 0 127 0" result="hardAlpha"/>
<feOffset dy="0.999209"/>
<feGaussianBlur stdDeviation="1"/>
<feComposite in2="hardAlpha" operator="out"/>
<feColorMatrix type="matrix" values="0 0 0 0 0.14225 0 0 0 0 0.139028 0 0 0 0 0.183333 0 0 0 0.5 0"/>
<feBlend mode="normal" in2="effect2_dropShadow_1_1021" result="effect3_dropShadow_1_1021"/>
<feBlend mode="normal" in="SourceGraphic" in2="effect3_dropShadow_1_1021" result="shape"/>
</filter>
</defs>
</svg>
