<svg width="49" height="48" viewBox="0 0 49 48" fill="none" xmlns="http://www.w3.org/2000/svg">
<path d="M24.4996 46.3075C36.8198 46.3075 46.8073 36.32 46.8073 23.9998C46.8073 11.6796 36.8198 1.69214 24.4996 1.69214C12.1794 1.69214 2.19189 11.6796 2.19189 23.9998C2.19189 36.32 12.1794 46.3075 24.4996 46.3075Z" stroke="#8B88EF" stroke-width="2.2" stroke-linecap="round" stroke-linejoin="round"/>
<path d="M24.9319 28.7041C27.7908 28.7041 30.1159 26.3777 30.1159 23.5201V15.7441C30.1159 12.8851 27.7908 10.5601 24.9319 10.5601C22.0729 10.5601 19.7479 12.8851 19.7479 15.7441V23.5201C19.7479 26.3777 22.0729 28.7041 24.9319 28.7041ZM34.0039 23.5201V20.9281C34.0039 20.5843 33.8673 20.2547 33.6243 20.0116C33.3812 19.7686 33.0516 19.6321 32.7079 19.6321C32.3641 19.6321 32.0345 19.7686 31.7915 20.0116C31.5484 20.2547 31.4119 20.5843 31.4119 20.9281V23.5201C31.4119 27.0931 28.5049 30.0001 24.9319 30.0001C21.3588 30.0001 18.4519 27.0931 18.4519 23.5201V20.9281C18.4519 20.5843 18.3153 20.2547 18.0723 20.0116C17.8292 19.7686 17.4996 19.6321 17.1559 19.6321C16.8121 19.6321 16.4825 19.7686 16.2395 20.0116C15.9964 20.2547 15.8599 20.5843 15.8599 20.9281V23.5201C15.8599 28.082 19.2463 31.8559 23.6359 32.4884V33.8881H19.7479C19.4041 33.8881 19.0745 34.0246 18.8315 34.2676C18.5884 34.5107 18.4519 34.8403 18.4519 35.1841C18.4519 35.5278 18.5884 35.8574 18.8315 36.1005C19.0745 36.3435 19.4041 36.4801 19.7479 36.4801H30.1159C30.4596 36.4801 30.7892 36.3435 31.0323 36.1005C31.2753 35.8574 31.4119 35.5278 31.4119 35.1841C31.4119 34.8403 31.2753 34.5107 31.0323 34.2676C30.7892 34.0246 30.4596 33.8881 30.1159 33.8881H26.2279V32.4884C30.6174 31.8559 34.0039 28.082 34.0039 23.5201Z" fill="#8B88EF"/>
</svg>
